<svg xmlns="http://www.w3.org/2000/svg" viewBox="0 0 64 64" role="img" aria-label="Autonomous Business Builder">
  <defs>
    <linearGradient id="g" x1="10" y1="8" x2="54" y2="58" gradientUnits="userSpaceOnUse">
      <stop stop-color="#6366f1"/>
      <stop offset="1" stop-color="#8b5cf6"/>
    </linearGradient>
  </defs>
  <rect width="64" height="64" rx="14" fill="url(#g)"/>
  <path fill="#fff" d="M20 43V22h12.8c4.7 0 8 2.5 8 6.5 0 2.2-1.1 4-3 5 2.8.9 4.4 2.9 4.4 5.7 0 4.3-3.5 3.8-8.5 3.8H20Zm6-12h6c1.7 0 2.8-.9 2.8-2.4 0-1.4-1.1-2.3-2.8-2.3h-6V31Zm0 7.7h7.1c1.9 0 3-.9 3-2.5s-1.1-2.5-3-2.5H26v5Z"/>
  <circle cx="46" cy="20" r="4" fill="#a7f3d0"/>
</svg>
